<?xml version="1.0" encoding="UTF-8" standalone="no"?>
<!-- Created with Inkscape (http://www.inkscape.org/) -->

<svg
   xmlns:dc="http://purl.org/dc/elements/1.1/"
   xmlns:cc="http://creativecommons.org/ns#"
   xmlns:rdf="http://www.w3.org/1999/02/22-rdf-syntax-ns#"
   xmlns:svg="http://www.w3.org/2000/svg"
   xmlns="http://www.w3.org/2000/svg"
   xmlns:sodipodi="http://sodipodi.sourceforge.net/DTD/sodipodi-0.dtd"
   xmlns:inkscape="http://www.inkscape.org/namespaces/inkscape"
   width="194.38417"
   height="400.00018"
   id="svg2"
   version="1.1"
   inkscape:version="0.48.3.1 r9886"
   sodipodi:docname="logo-python-madrid-blanco.svg"
   inkscape:export-filename="/home/pymedio/Imágenes/python-madrid-negro.png"
   inkscape:export-xdpi="87"
   inkscape:export-ydpi="87">
  <title
     id="title3027">Python Madrid Logo</title>
  <defs
     id="defs4" />
  <sodipodi:namedview
     id="base"
     pagecolor="#ffffff"
     bordercolor="#666666"
     borderopacity="1.0"
     inkscape:pageopacity="0.0"
     inkscape:pageshadow="2"
     inkscape:zoom="1"
     inkscape:cx="-1.10958"
     inkscape:cy="181.28366"
     inkscape:document-units="px"
     inkscape:current-layer="layer3"
     showgrid="false"
     inkscape:window-width="1366"
     inkscape:window-height="744"
     inkscape:window-x="0"
     inkscape:window-y="24"
     inkscape:window-maximized="1"
     showguides="true"
     inkscape:guide-bbox="true"
     fit-margin-top="0"
     fit-margin-left="0"
     fit-margin-right="0"
     fit-margin-bottom="0" />
  <metadata
     id="metadata7">
    <rdf:RDF>
      <cc:Work
         rdf:about="">
        <dc:format>image/svg+xml</dc:format>
        <dc:type
           rdf:resource="http://purl.org/dc/dcmitype/StillImage" />
        <dc:title>Python Madrid Logo</dc:title>
        <cc:license
           rdf:resource="http://creativecommons.org/publicdomain/zero/1.0" />
        <dc:date>2012</dc:date>
        <dc:creator>
          <cc:Agent>
            <dc:title>Rubén Hidalgo Soto</dc:title>
          </cc:Agent>
        </dc:creator>
        <dc:identifier />
        <dc:source>https://github.com/rubencho/pymadrid.logos</dc:source>
        <dc:language />
        <dc:subject>
          <rdf:Bag>
            <rdf:li>Python</rdf:li>
            <rdf:li>Madrid</rdf:li>
            <rdf:li>Comunidad</rdf:li>
          </rdf:Bag>
        </dc:subject>
      </cc:Work>
    </rdf:RDF>
  </metadata>
  <g
     inkscape:groupmode="layer"
     id="layer3"
     inkscape:label="Oso Azul"
     style="display:inline"
     transform="translate(-225.05963,-145.25374)">
    <path
       style="fill:#376a94;fill-opacity:0.94117647"
       d="m 306.11488,236.47308 c -2.59326,0.36398 -10.26104,4.06718 -13.3641,5.97614 -5.41095,3.32866 -5.75269,3.43546 -8.25849,2.54108 -2.33684,-0.83403 -3.03285,-0.74031 -6.51734,0.87053 -2.14279,0.99057 -6.25961,3.88644 -9.15246,6.44681 -3.7592,3.32693 -5.85767,4.33789 -7.3409,4.65861 -2.42465,0.52416 -6.37391,0.39239 -5.57617,6.58789 0.86677,6.73238 2.60908,5.31741 5.95263,5.31741 2.45214,0 3.44835,1.58681 3.78809,6.07029 0.16486,2.17399 0.69756,8.3095 1.17638,13.6229 0.85987,9.54147 0.85474,9.70382 -0.96466,13.74054 -3.20575,7.1127 -4.58021,13.31369 -3.74099,16.96397 1.17382,5.10561 -0.41691,8.63262 -10.09361,22.42245 -4.81105,6.85577 -7.53575,12.14469 -8.91728,17.26981 -0.58026,2.15265 -2.23986,6.45659 -3.6939,9.57599 -3.60753,7.73924 -3.8965,10.52824 -2.07048,20.94022 1.73662,9.90256 1.92383,10.323 5.64678,13.85816 1.4833,1.40855 2.68223,2.98509 2.68223,3.50576 0,0.52063 1.02116,1.68508 2.25869,2.58808 3.02362,2.20648 3.60602,5.50358 1.64698,9.29372 -0.82613,1.59831 -2.08219,4.90073 -2.7999,7.34085 -0.71766,2.43999 -1.93604,4.85386 -2.7057,5.388 -1.88158,1.30545 -1.76868,2.12819 0.61172,4.30569 1.33904,1.22485 1.70024,2.4106 1.59991,3.03519 l 47.22133,-2.91754 c -0.0432,-2.58586 -6.89551,-5.42778 -9.57598,-4.58806 -1.80588,0.56568 -1.76377,0.42604 1.22341,-4.47039 1.41733,-2.32319 2.80435,-5.55272 3.08224,-7.17615 0.27801,-1.62336 1.28574,-3.85074 2.23518,-4.96443 1.86905,-2.19233 3.38136,-6.71024 3.3881,-10.07014 0.002,-1.15753 -0.84961,-4.57934 -1.90579,-7.5997 -1.39881,-3.99992 -1.78221,-6.21489 -1.41169,-8.16428 0.57442,-3.02234 6.99593,-9.92181 9.05839,-11.01128 0.74562,-0.39398 4.31453,-4.27441 5.85854,-7.2467 1.54398,-2.97231 3.82885,-5.7309 4.39976,-6.37618 0.57097,-0.64525 3.29401,-6.05906 3.29401,-6.91736 0.11316,-1.71852 3.45736,-6.30414 3.48215,-10.1407 0.47076,-2.3051 2.62036,-15.25226 7.08208,-14.06995 4.32853,-2.10184 10.1434,-6.72129 11.31706,-7.78783 1.82436,-0.81793 9.89675,-5.0306 9.71727,-9.52899 -0.56642,-14.19488 -0.97362,-38.05191 -2.47047,-46.63316 -0.43233,-0.43613 -1.53012,-0.17684 -2.42344,-0.25878 -1.48116,0 -2.96496,1.52493 -4.541,4.63504 -0.84216,1.66204 -0.85487,2.57591 -0.0941,5.08218 1.10242,3.63176 0.016,11.78346 -1.55291,14.82286 -1.51722,2.93997 -4.26371,6.41325 -10.49357,8.11731 -3.06213,0.8375 -5.65846,1.50575 -5.76448,1.50575 -0.10597,0 -1.0906,-1.41571 -2.21162,-3.15277 -1.12106,-1.73711 -2.79242,-3.98974 -3.71748,-5.01155 -2.27415,-2.51188 -4.61273,-9.6503 -5.22326,-15.97573 -0.37722,-3.90646 -1.06595,-6.05578 -2.72936,-8.65845 -3.34416,-5.23252 -3.53171,-8.01514 -0.79997,-11.10534 1.23036,-1.39173 2.96632,-3.95679 3.85867,-5.69389 1.03108,-2.00706 4.87512,-5.31593 4.94098,-8.35252 0.048,-2.74032 -3.12626,-8.78208 -5.41149,-8.61136 z m -22.98721,10.7524 c 1.97075,0 3.57632,1.60557 3.57632,3.57631 0,1.97072 -1.60557,3.5763 -3.57632,3.5763 -1.97073,0 -3.55279,-1.60558 -3.55279,-3.5763 0,-1.97074 1.58206,-3.57631 3.55279,-3.57631 z m 11.1054,51.90347 -1.43529,1.57646 c -1.43293,1.58975 -5.71735,2.26029 -5.71735,0.89401 0,-0.98367 0.73307,-1.30825 4.16451,-1.92929 l 2.98813,-0.54118 z m -33.41023,78.65521 c 1.43911,0.10925 3.98537,0.95717 5.69384,1.71756 2.77839,1.23662 4.48816,3.322 1.92938,2.35283 -0.608,-0.23038 -4.0845,-1.14376 -4.32928,-0.75289 -0.71984,1.14958 -2.28523,0.81349 -3.76455,-0.79994 -1.03438,-1.12819 -1.1633,-1.71558 -0.51758,-2.35284 0.16128,-0.15973 0.50846,-0.20122 0.98819,-0.1649 z"
       id="path3050"
       inkscape:connector-curvature="0"
       inkscape:export-filename="/home/pymedio/Python/python-madrid/pymadrid.logos/source/png/800x1600/backg_white-800x1600.png"
       inkscape:export-xdpi="89.99675"
       inkscape:export-ydpi="89.99675" />
  </g>
  <g
     inkscape:groupmode="layer"
     id="layer4"
     inkscape:label="Tronco Amarillo"
     style="display:inline"
     transform="translate(-225.05963,-145.25374)">
    <path
       style="fill:#ffbc29;fill-opacity:0.94117647;display:inline"
       d="m 345.42349,278.22412 c -0.7807,-7.65413 -0.88228,-9.31265 -1.52898,-11.31816 -0.016,-0.41453 0.11158,-0.75257 1.21146,-0.3728 9.51653,3.28754 22.08999,2.59048 29.5763,-0.0852 0.96351,-0.34442 0.0434,3.97937 0.0797,5.84316 -1.29445,9.37573 -1.98815,29.56918 -1.58069,35.37961 0.49648,7.07871 1.59246,8.73416 5.78271,8.73416 3.13205,0 4.94898,1.84577 6.5955,6.70029 1.64898,4.86149 1.19002,6.28686 -3.26165,10.1302 -6.2989,5.43807 -6.75692,7.67701 -6.10691,29.84718 1.13673,38.76805 3.14889,60.49225 6.14394,66.33471 1.60575,3.13227 6.06442,6.58382 9.15874,7.0898 5.77338,0.94413 7.38586,1.30907 8.60668,1.94794 1.54921,0.81068 3.7425,10.73386 2.60661,12.10263 -26.5156,-7.68654 -177.64707,2.04375 -177.64707,2.04375 l -2e-4,0 0.004,-8.21639 c 0,0.0241 1.16057,-1.01492 14.11553,-2.20587 4.52461,-0.416 8.43148,-0.86124 11.63964,-1.24108 4.89976,-0.36477 32.90342,-2.60399 52.73245,-2.98853 3.13697,-0.2116 8.91696,-0.74493 12.84456,-1.18526 9.50899,-1.06604 13.91441,-2.80951 18.25859,-7.22611 4.59148,-4.6679 6.69188,-10.6683 9.25169,-26.43049 1.37563,-8.47061 3.74025,-58.6976 3.05874,-64.97118 l -0.008,-21.63367"
       id="path3050-9"
       inkscape:connector-curvature="0"
       sodipodi:nodetypes="ccsscssssssccccccsccssscc"
       inkscape:export-filename="/home/pymedio/Python/python-madrid/pymadrid.logos/source/png/800x1600/backg_white-800x1600.png"
       inkscape:export-xdpi="89.99675"
       inkscape:export-ydpi="89.99675" />
  </g>
  <g
     inkscape:groupmode="layer"
     id="layer6"
     inkscape:label="Logo Python"
     style="display:inline"
     transform="translate(-0.00675,-0.00144167)">
    <g
       style="display:inline"
       id="g4215"
       transform="matrix(0.52672824,0,0,0.52672824,-136.77806,-67.848035)"
       inkscape:export-filename="/home/pymedio/Python/python-madrid/pymadrid.logos/source/png/800x1600/backg_white-800x1600.png"
       inkscape:export-xdpi="89.99675"
       inkscape:export-ydpi="89.99675">
      <path
         d="m 513.76554,128.81494 c -9.36925,0.0435 -18.31665,0.8426 -26.18944,2.23568 -23.19229,4.09733 -27.4031,12.67334 -27.4031,28.489 l 0,20.88767 54.80619,0 0,6.96256 -54.80619,0 -20.56829,0 c -15.9282,0 -29.8754,9.57378 -34.2379,27.78636 -5.03209,20.87585 -5.2553,33.90273 0,55.70046 3.89581,16.22541 13.19956,27.78635 29.12777,27.78635 l 18.84362,0 0,-25.03965 c 0,-18.08967 15.6516,-34.04625 34.2379,-34.04627 l 54.74231,0 c 15.23832,0 27.4031,-12.54673 27.4031,-27.85024 l 0,-52.18724 c 0,-14.85279 -12.53001,-26.01011 -27.4031,-28.489 -9.41489,-1.56722 -19.18365,-2.27922 -28.55287,-2.23568 z m -29.63878,16.79956 c 5.66109,0 10.28414,4.69857 10.28414,10.47578 -2e-5,5.75675 -4.62305,10.4119 -10.28414,10.4119 -5.68141,0 -10.28415,-4.65515 -10.28415,-10.4119 -2e-5,-5.77721 4.60274,-10.47578 10.28415,-10.47578 z"
         style="fill:#376a94;fill-opacity:0.94117647"
         id="path1948"
         inkscape:connector-curvature="0" />
      <path
         d="m 576.55631,187.38985 0,24.33701 c 0,18.86817 -15.99656,34.74892 -34.2379,34.74892 l -54.74231,0 c -14.99485,0 -27.4031,12.83357 -27.4031,27.85023 l 0,52.18725 c 0,14.85278 12.91552,23.58903 27.4031,27.85023 17.34856,5.10116 33.9849,6.02307 54.74231,0 13.79767,-3.99488 27.4031,-12.03459 27.4031,-27.85023 l 0,-20.88768 -54.74232,0 0,-6.96256 54.74232,0 27.40309,0 c 15.92821,0 21.86371,-11.11025 27.40307,-27.78635 5.72199,-17.16776 5.47852,-33.67736 0,-55.70046 -3.93639,-15.85663 -11.45461,-27.78636 -27.40307,-27.78636 l -20.56829,0 z M 545.76775,319.5507 c 5.68139,2e-5 10.28415,4.65517 10.28415,10.4119 -2e-5,5.77721 -4.60276,10.47577 -10.28415,10.47577 -5.66111,0 -10.28414,-4.69856 -10.28414,-10.47577 0,-5.75673 4.62301,-10.4119 10.28414,-10.4119 z"
         style="fill:#ffbc29;fill-opacity:0.94117647"
         id="path1950"
         inkscape:connector-curvature="0" />
    </g>
  </g>
  <g
     style="display:inline"
     transform="translate(-1.1626559e-5,-5.4291373e-6)"
     inkscape:label="Madrid"
     id="g4253"
     inkscape:groupmode="layer">
    <g
       style="display:inline"
       id="g4132"
       transform="matrix(0.43209187,0,0,0.43209187,-152.0488,45.839438)"
       inkscape:export-filename="/home/pymedio/Python/python-madrid/pymadrid.logos/source/png/800x1600/backg_white-800x1600.png"
       inkscape:export-xdpi="89.99675"
       inkscape:export-ydpi="89.99675">
      <path
         inkscape:connector-curvature="0"
         style="fill:#000000;fill-opacity:0.83529412"
         d="m 569.12977,760.72592 c -19.02468,0 -31.54336,15.90963 -28.09375,35.71875 1.82584,10.48476 8.40732,18.21016 18.59375,21.84375 8.41252,3.00082 20.03492,0.84604 26.0625,-4.8125 l 2.25,-2.09375 0,3.65625 0,3.6875 6,0 6,0 0,-28.5 0,-28.5 -6,0 -6,0 0,3.6875 0,3.6875 -2.75,-2.625 c -3.98759,-3.81945 -9.35811,-5.75 -16.0625,-5.75 z m 1.75,12.46875 c 2.98294,0.0143 6.0611,0.869 9,2.65625 9.22228,5.6084 9.09348,23.22829 -0.21875,28.90625 -3.38913,2.06646 -12.35278,2.61875 -16.21875,1 -5.08368,-2.12862 -9.5,-9.0234 -9.5,-14.84375 0,-10.48436 7.98869,-17.76158 16.9375,-17.71875 z"
         id="path3930" />
      <path
         inkscape:connector-curvature="0"
         style="fill:#000000;fill-opacity:0.83529412"
         d="m 653.94227,742.72592 0,12.09375 0,12.09375 -2.875,-2.4375 c -8.8401,-7.43846 -25.10284,-5.70965 -34.46875,3.65625 -5.92634,5.92635 -8.15625,11.8628 -8.15625,21.65625 0,7.55615 0.36889,9.25774 3.03125,14.46875 3.19779,6.259 9.97637,12.36 15.84375,14.25 4.32246,1.3923 12.64042,1.44183 16.71875,0.0937 1.86957,-0.61798 5.09375,-2.42331 7.15625,-4.03125 l 3.75,-2.9375 0,3.53125 0,3.5625 6.5,0 6.5,0 0,-38 0,-38 -7,0 -7,0 z m -15.5,29.9375 c 3.12334,10e-4 6.25512,0.75836 8.59375,2.3125 4.08914,2.71745 7.90625,9.83478 7.90625,14.75 0,4.91522 -3.81711,12.03255 -7.90625,14.75 -4.67726,3.10821 -12.53313,3.10393 -17.09375,0 -5.93416,-4.03875 -7.5,-7.1024 -7.5,-14.75 0,-7.64761 1.56584,-10.71125 7.5,-14.75 2.28031,-1.552 5.37666,-2.31397 8.5,-2.3125 z"
         id="path3926" />
      <path
         inkscape:connector-curvature="0"
         style="fill:#000000;fill-opacity:0.83529412"
         d="m 778.94227,742.72592 0,11.5 c 0,11.23731 -0.53016,13.00082 -2.96875,10.0625 -2.20086,-2.65188 -10.88902,-4.86663 -17,-4.3125 -14.42348,1.30787 -24.70798,12.40665 -25.8125,27.84375 -1.0022,14.00709 6.61194,26.10269 19.28125,30.65625 4.01374,1.4426 12.39783,1.51194 16.59375,0.125 1.86957,-0.61798 5.09375,-2.42331 7.15625,-4.03125 l 3.75,-2.9375 0,3.53125 0,3.5625 6.5,0 6.5,0 0,-38 0,-38 -7,0 -7,0 z m -15.5,29.9375 c 3.12334,10e-4 6.25512,0.75836 8.59375,2.3125 4.08914,2.71745 7.90625,9.83478 7.90625,14.75 0,4.91522 -3.81711,12.03255 -7.90625,14.75 -4.67726,3.10821 -12.53313,3.10393 -17.09375,0 -5.93416,-4.03875 -7.5,-7.1024 -7.5,-14.75 0,-7.64761 1.56584,-10.71125 7.5,-14.75 2.28031,-1.552 5.37666,-2.31397 8.5,-2.3125 z"
         id="path3922" />
      <path
         inkscape:connector-curvature="0"
         style="fill:#000000;fill-opacity:0.83529412"
         d="m 451.94227,780.72592 0,-38 9.75,0.0117 9.75,0.0117 10.07804,28.60102 10.07804,28.60102 9.96862,-28.36275 9.96861,-28.36275 9.70334,-0.28621 9.70335,-0.28621 0,38.03621 0,38.03621 -6.98418,0 -6.98418,0 -0.26582,-27.53496 -0.26582,-27.53491 -9.5,27.28497 -9.5,27.28496 -5.91936,0 -5.91936,0 -9.58064,-27.5 -9.58064,-27.5 -0.26582,27.75 -0.26582,27.75 -6.98418,0 -6.98418,0 0,-38 z"
         id="path3912" />
      <path
         inkscape:connector-curvature="0"
         style="fill:#000000;fill-opacity:0.83529412"
         d="m 677.94227,790.22592 0,-28.5 6.5,0 c 5.92554,0 6.5,0.18461 6.5,2.08889 0,2.01019 0.11593,1.99135 3.07673,-0.5 1.99875,-1.68183 4.27611,-2.58889 6.5,-2.58889 l 3.42327,0 0,6.38871 0,6.38871 -3.43972,0.64529 c -2.06574,0.38754 -4.46241,1.8607 -6,3.68802 -2.54965,3.03008 -2.56028,3.12131 -2.56028,21.96599 l 0,18.92328 -7,0 -7,0 0,-28.5 z"
         id="path3910" />
      <path
         inkscape:connector-curvature="0"
         style="fill:#000000;fill-opacity:0.83529412"
         d="m 710.94227,790.22592 0,-28.5 6.5,0 6.5,0 0,28.5 0,28.5 -6.5,0 -6.5,0 0,-28.5 z"
         id="path3908" />
      <path
         inkscape:connector-curvature="0"
         style="fill:#000000;fill-opacity:0.83529412"
         d="m 710.94227,749.22592 0,-6.5 6.5,0 6.5,0 0,6.5 0,6.5 -6.5,0 -6.5,0 0,-6.5 z"
         id="path3860" />
    </g>
    <text
       xml:space="preserve"
       style="font-size:30.11625862px;font-style:normal;font-weight:normal;line-height:125%;letter-spacing:0px;word-spacing:0px;fill:#000000;fill-opacity:1;stroke:none;display:inline;font-family:Sans"
       x="141.97752"
       y="319.53757"
       id="text3020"
       sodipodi:linespacing="125%"
       inkscape:export-filename="/home/pymedio/Python/python-madrid/pymadrid.logos/source/png/800x1600/backg_white-800x1600.png"
       inkscape:export-xdpi="89.99675"
       inkscape:export-ydpi="89.99675"><tspan
         sodipodi:role="line"
         id="tspan3022"
         x="141.97752"
         y="319.53757"
         style="font-size:9.03487682px;fill:#000000;fill-opacity:1">TM</tspan></text>
  </g>
  <g
     inkscape:groupmode="layer"
     id="layer1"
     inkscape:label="Python"
     transform="translate(-225.05963,-145.25374)"
     style="display:inline">
    <g
       id="g4124"
       transform="matrix(0.4681306,0,0,0.4681306,195.27206,115.92263)"
       inkscape:export-filename="/home/pymedio/Python/python-madrid/pymadrid.logos/source/png/800x1600/backg_white-800x1600.png"
       inkscape:export-xdpi="89.99675"
       inkscape:export-ydpi="89.99675">
      <path
         inkscape:connector-curvature="0"
         style="fill:#376a94;fill-opacity:0.94117647"
         d="m 134.94227,836.8367 c 0,-0.48907 2.26428,-5.97096 5.03172,-12.18197 l 5.03172,-11.29276 -10.0338,-25.06803 c -5.51858,-13.78741 -10.03286,-25.40552 -10.03172,-25.81802 0.001,-0.4125 3.33971,-0.75 7.41903,-0.75 l 7.41694,0 5.70787,17.25 c 3.13933,9.4875 6.03586,17.61165 6.43673,18.05368 0.40088,0.44202 3.77649,-7.32048 7.50137,-17.25 l 6.77252,-18.05368 7.37381,0 c 4.05559,0 7.37381,0.33309 7.37381,0.74021 0,0.40711 -7.26475,17.50711 -16.14389,38 l -16.14389,37.25979 -6.85611,0 c -3.77086,0 -6.85611,-0.40015 -6.85611,-0.88922 z"
         id="path3936" />
      <path
         inkscape:connector-curvature="0"
         style="fill:#ffbc29;fill-opacity:0.94117647"
         d="m 307.37977,761.13217 c -7.80633,0.28294 -15.4365,3.66632 -20.90625,9.75 -5.56623,6.19098 -7.87255,12.91403 -7.34375,21.21875 0.83577,13.1254 9.85397,23.4889 22.8125,26.1875 6.89622,1.43613 12.07143,0.86609 18.65625,-2.0625 9.99738,-4.44632 17.34375,-15.4657 17.34375,-26 0,-10.44852 -7.0172,-21.39444 -16.75,-26.15625 -4.38103,-2.14344 -9.1287,-3.10726 -13.8125,-2.9375 z m -0.3125,11.96875 c 3.9329,-0.16051 8.15033,0.6814 10.65625,2.46875 10.00173,7.13375 9.25127,23.84579 -1.34375,29.875 -9.60551,5.46611 -21.15908,0.47571 -23.90625,-10.34375 -2.0599,-8.1127 0.26829,-14.90321 6.84375,-19.8125 1.78781,-1.33479 4.69108,-2.06266 7.75,-2.1875 z"
         id="path3934" />
      <path
         inkscape:connector-curvature="0"
         style="fill:#376a94;fill-opacity:0.94117647"
         d="m 72.942274,742.47592 0,38.125 0,38.125 7,0 7,0 0,-14.34375 0,-14.375 9.375,-0.53125 c 10.724716,-0.63984 16.081886,-2.80694 19.937496,-8 6.83743,-9.20923 6.32031,-23.70881 -1.125,-31.375 -5.64481,-5.81227 -8.77636,-6.6548 -26.437496,-7.15625 l -15.75,-0.46875 z m 14,13.25 3.25,0.0625 c 12.201466,0.2238 16.774526,3.05255 16.718746,10.3125 -0.0339,4.40636 -1.23669,6.63013 -4.46875,8.34375 -1.1,0.58322 -5.037496,1.38556 -8.749996,1.78125 l -6.75,0.71875 0,-10.59375 0,-10.625 z"
         id="path3918" />
      <path
         inkscape:connector-curvature="0"
         style="fill:#376a94;fill-opacity:0.94117647"
         d="m 190.7114,796.47592 -0.26913,-22.25 -3.25,-0.31336 -3.25,-0.31336 0,-5.93664 0,-5.93664 3.5,0 3.5,0 0,-9.5 0,-9.5 6.5,0 6.5,0 0,9.5 0,9.5 4,0 4,0 0,6 0,6 -4,0 -4,0 0,22.5 0,22.5 -6.48087,0 -6.48087,0 -0.26913,-22.25 z"
         id="path3914" />
      <path
         inkscape:connector-curvature="0"
         style="fill:#ffbc29;fill-opacity:0.94117647"
         d="m 219.94227,780.72592 0,-37 6,0 6,0 0,11 c 0,6.05 0.28438,11 0.63197,11 0.34758,0 2.11655,-0.91753 3.93105,-2.03895 7.62041,-4.70967 19.99867,-3.1037 26.31616,3.41429 5.1424,5.30562 6.12082,10.38624 6.12082,31.78359 l 0,18.84107 -6.5,0 -6.5,0 0,-18.03212 c 0,-24.07788 -1.22366,-26.96788 -11.41848,-26.96788 -3.55437,0 -5.22021,0.60174 -7.61303,2.75 -3.8201,3.42967 -4.91936,9.87186 -4.94838,29 l -0.0201,13.25 -6,0 -6,0 0,-37 z"
         id="path3906" />
      <path
         inkscape:connector-curvature="0"
         style="fill:#ffbc29;fill-opacity:0.94117647"
         d="m 346.94227,789.72592 0,-28 5.5,0 c 5.44444,0 5.5,0.0303 5.5,3 0,3.63815 0.39358,3.68805 4.15111,0.5263 8.92909,-7.51333 24.64884,-4.8268 30.55575,5.22201 2.78664,4.74063 2.79389,4.80113 3.11428,26.00169 l 0.32114,21.25 -6.57114,0 -6.57114,0 -0.002,-18.25 c -10e-4,-15.37147 -0.27734,-18.80205 -1.75,-21.75 -2.09424,-4.19219 -7.07975,-5.90252 -12.90262,-4.42637 -7.44727,1.88795 -9.11058,7.48709 -9.26145,31.17637 l -0.0839,13.25 -6,0 -6,0 0,-28 z"
         id="path3904" />
    </g>
  </g>
</svg>
